<?xml version="1.0" encoding="UTF-8"?>
<!-- Generator: Adobe Illustrator 27.2.0, SVG Export Plug-In . SVG Version: 6.00 Build 0)  -->
<svg version="1.1" id="Layer_1" xmlns="http://www.w3.org/2000/svg" xmlns:xlink="http://www.w3.org/1999/xlink" x="0px" y="0px" viewBox="0 0 126 160" style="enable-background:new 0 0 126 160;" xml:space="preserve">
<style type="text/css">
	.st0{fill:#FFFFFF;}
	.st1{fill:url(#SVGID_1_);}
	.st2{fill:url(#SVGID_00000176734484411664903000000012106602831504191167_);}
	.st3{fill:url(#SVGID_00000107569361309621116270000018290141998898783661_);}
	.st4{fill:url(#SVGID_00000098922103755846258700000009139519940746181290_);}
	.st5{fill:#DC1D2E;}
	.st6{fill:#C51828;}
	.st7{fill:#A51220;}
	.st8{fill:#404041;}
	.st9{fill:#626366;}
	.st10{fill:#004D99;}
	.st11{fill:#004084;}
	.st12{fill:#003371;}
</style>
<g>
	<g>
		<path class="st0" d="M55.6,144.3c-0.5,0-1-0.2-1.3-0.5l-6.6-6.5c-2.4-2.4-4.8-4.9-7.2-7.3l-1-1l-0.9-0.9l-0.9-0.9l-0.9-0.9    l-0.9-0.9l-0.9-0.9l-0.9-1l-0.9-1l-0.9-1l-0.9-1l-0.9-1l-0.9-1c-0.2-0.3-0.9-1-0.9-1c-0.2-0.3-0.8-0.9-0.8-0.9    c-0.3-0.3-0.8-0.8-0.8-0.9c-11.7-13.1-18.9-22.8-21.4-29l-0.1-0.3c-0.1-0.2-0.1-0.3-0.3-0.7c0,0,0-0.1,0-0.1c0,0-0.1-0.2-0.1-0.3    c0-0.1,0-0.1-0.1-0.2c0,0,0,0,0-0.1C3,79.3,1.5,72.5,0.8,66c-0.8-8.7-0.2-16.8,2-24.2c0,0,0,0,0-0.1c0,0,0.1-0.3,0.1-0.4    c1.1-3.7,2.7-7.4,4.8-11.1c4.1-7.1,8.7-11.6,11.8-14.2c2.9-2.4,5.8-4.1,7.8-4.5c0.1,0,0.2-0.1,0.2-0.1C34.6,5,42.8,4,47,4    c0.7,0,1.4,0,2.1,0.1c0,0,0,0,0,0c0.1,0,0.2,0,0.3-0.1c4.3-3.1,10.4-3.4,12.8-3.4c0.3,0,0.5,0,0.7,0c0,0,0,0,0,0    c0.2,0,0.4,0,0.7,0c2.4,0,8.5,0.3,12.8,3.4c0.1,0.1,0.2,0.1,0.3,0.1c0,0,0,0,0,0C77.5,4,78.2,4,79,4c4.3,0,12.5,1,19.5,7.4    c0.1,0.1,0.1,0.1,0.2,0.1c2,0.5,4.9,2.1,7.8,4.5c3.1,2.5,7.6,7,11.7,14.2c2.2,3.8,3.8,7.5,4.8,11.1c0,0.1,0.1,0.2,0.1,0.2    c0,0,0.1,0.2,0.1,0.2c0.1,0.2,0.1,0.4,0.2,0.5l0.1,0.4c0,0.1,0.1,0.3,0.1,0.4c0.1,0.3,0.1,0.5,0.2,0.8l0,0.2    c0.1,0.2,0.1,0.5,0.2,0.7c0,0.1,0.1,0.3,0.1,0.4l0,0.2c0.1,0.3,0.2,0.7,0.2,1c0,0.1,0.1,0.3,0.1,0.3c0.1,0.5,0.2,0.9,0.2,1.3    l0,0.1c0.5,3,0.8,6,0.9,9.1l0,0c0,0.5,0,1,0,1.4c0.1,12.6-3.4,22.9-4.8,26.7c-0.1,0.2-0.1,0.3-0.2,0.4c-0.1,0.4-0.2,0.5-0.3,0.7    l-0.1,0.3c0,0.1-0.1,0.2-0.1,0.3c0,0-0.1,0.3-0.1,0.3c0,0.1-0.1,0.2-0.1,0.2c-0.1,0.2-0.1,0.3-0.2,0.4c-0.1,0.1-0.1,0.2-0.1,0.3    c0,0-0.2,0.3-0.2,0.3c-0.1,0.2-0.2,0.3-0.2,0.5l-0.1,0.2c-0.4,0.8-0.9,1.6-1.4,2.4l0,0c-3.4,5.7-9.2,13.2-17.4,22.4c0,0,0,0,0,0    c-0.3,0.3-0.6,0.7-0.9,1l0,0c-0.3,0.3-0.6,0.7-0.9,1l0,0c-0.3,0.3-0.6,0.7-0.9,1l0,0c-0.3,0.3-0.6,0.7-0.9,1l-0.1,0.1    c-0.3,0.3-0.6,0.7-0.9,1l0,0c-0.3,0.3-0.6,0.7-0.9,1l-0.1,0.1c-0.3,0.3-0.6,0.7-0.9,1l0,0c-0.3,0.3-0.6,0.7-0.9,1c0,0-0.7,0.7-1,1    l-1,1c-0.3,0.3-0.9,1-0.9,1c-7.7,8.2-14.6,14.9-18,18.2c-0.4,0.4-0.8,0.5-1.4,0.5H55.6z"/>
		<path class="st0" d="M59,159.4c-0.6,0-1.1-0.4-1.2-0.9l-2.1-7.5c-0.6-0.1-1.1-0.7-1.1-1.3v-0.9c0-0.7,0.6-1.3,1.3-1.3h14.6    c0.7,0,1.3,0.6,1.3,1.3v0.9c0,0.7-0.5,1.2-1.1,1.3l-2.1,7.5c-0.2,0.6-0.7,0.9-1.2,0.9H59z"/>
		<g>
			<path class="st0" d="M78.8,158.3c-2.8,0-5.1-2.2-5.1-5c0-2.8,2.3-5,5.1-5c2.8,0,5.1,2.3,5.1,5C83.8,156.1,81.6,158.3,78.8,158.3z     "/>
			<path class="st0" d="M78.8,148.7c2.5,0,4.6,2,4.6,4.5c0,2.6-2,4.6-4.6,4.6c-2.5,0-4.6-2-4.6-4.6     C74.2,150.8,76.2,148.7,78.8,148.7L78.8,148.7z"/>
		</g>
	</g>
	<g>
		<g>
			<g>
				<path class="st0" d="M7.3,84.7c0.2,0.5,0.2,0.5,0.4,0.9c2.1,5.3,7.7,12.9,14.4,21c8.1,9.7,17.8,20,25.4,27.5      c2.8,2.8,5.3,5.4,7.5,7.5c0,0,0,0,0,0c0.2,0.2,0.3,0.3,0.5,0.5l0.1,0l7.3,0l0,0l6.9,0l0.5,0c11.8-11.3,36.7-36.4,45.7-51.4l0,0      c0.5-0.8,0.9-1.6,1.3-2.4c0-0.1,0.1-0.2,0.1-0.2c0.1-0.1,0.1-0.2,0.2-0.4c0.1-0.1,0.1-0.2,0.2-0.3c0-0.1,0.1-0.2,0.1-0.3      c0.1-0.1,0.1-0.3,0.2-0.4c0-0.1,0.1-0.2,0.1-0.2c0.1-0.2,0.2-0.4,0.3-0.6c0-0.1,0-0.1,0.1-0.2l0,0c0.1-0.2,0.1-0.3,0.1-0.4      c0.1-0.2,0.1-0.4,0.1-0.5c3.9-9.9,7.4-27,2.5-43.1c0,0-11.8-32-57.9-32C22.1,8.5,5,41.7,5,41.7l0,0.8l-0.2-0.2      C0.2,58.2,3.5,74.9,7.3,84.7C7.3,84.7,7.3,84.7,7.3,84.7z"/>
				<linearGradient id="SVGID_1_" gradientUnits="userSpaceOnUse" x1="59.361" y1="76.4675" x2="2.5505" y2="76.4675">
					<stop offset="0" style="stop-color:#FFFFFF"/>
					<stop offset="0.6214" style="stop-color:#FDFDFE"/>
					<stop offset="0.845" style="stop-color:#F6F8FC"/>
					<stop offset="1" style="stop-color:#EBEFF8"/>
				</linearGradient>
				<path class="st1" d="M7.3,84.7c0.2,0.5,0.2,0.5,0.4,0.9c2.1,5.3,7.7,12.9,14.4,21c8.1,9.7,17.8,20,25.4,27.5      c2.8,2.8,5.3,5.4,7.5,7.5c0.2,0.2,0.3,0.3,0.5,0.5l0.1,0l3.8,0C37,93.4,46.7,26.8,49.5,10.8C18.2,16,5,41.7,5,41.7l0,0.8      l-0.2-0.2C0.2,58.2,3.5,74.9,7.3,84.7C7.3,84.7,7.3,84.7,7.3,84.7z"/>
				
					<linearGradient id="SVGID_00000112599518125760693300000006927632144637412489_" gradientUnits="userSpaceOnUse" x1="-3157.2227" y1="-2827.8481" x2="-3214.0332" y2="-2827.8481" gradientTransform="matrix(-1 0 0 1 -3090.6733 2904.3157)">
					<stop offset="0" style="stop-color:#FFFFFF"/>
					<stop offset="0.6214" style="stop-color:#FDFDFE"/>
					<stop offset="0.845" style="stop-color:#F6F8FC"/>
					<stop offset="1" style="stop-color:#EBEFF8"/>
				</linearGradient>
				<path style="fill:url(#SVGID_00000112599518125760693300000006927632144637412489_);" d="M76.4,10.8      c31.2,5.2,44.4,30.9,44.4,30.9l0,0.8l0.2-0.2c4.7,15.9,1.3,32.6-2.4,42.4c0,0,0,0,0,0c-0.2,0.5-0.2,0.5-0.4,0.9      c-2.1,5.3-7.7,12.9-14.4,21c-8.1,9.7-17.8,20-25.4,27.5c-3,3.1-5.8,5.8-8,8l-0.1,0l-3.8,0C89,93.4,79.2,26.8,76.4,10.8z"/>
				
					<linearGradient id="SVGID_00000068644542147348665300000009096547334835916471_" gradientUnits="userSpaceOnUse" x1="127.5882" y1="71.1307" x2="59.546" y2="85.5935">
					<stop offset="0" style="stop-color:#EBEFF8"/>
					<stop offset="0.155" style="stop-color:#F6F8FC"/>
					<stop offset="0.3786" style="stop-color:#FDFDFE"/>
					<stop offset="1" style="stop-color:#FFFFFF"/>
				</linearGradient>
				<path style="fill:url(#SVGID_00000068644542147348665300000009096547334835916471_);" d="M101,86.5      c-9.8,24.3-26.1,49.6-29.6,54.9c7.2-7,18.4-18.3,28.2-29.5c1.5-1.7,3-3.5,4.5-5.2c6.5-7.7,11.8-15,14.1-20.3      c0.1-0.1,0.1-0.3,0.2-0.4c0.1-0.2,0.1-0.3,0.2-0.4c0,0.1,0,0.1,0-0.1c0,0,0.1-0.2,0.3-0.8c3.8-9.8,7.1-26.5,2.4-42.4l-0.2-0.6      c0,0-6.8-13.3-22.3-22.7C102,30.6,109.9,64.2,101,86.5z"/>
				
					<linearGradient id="SVGID_00000088094589775476262430000004803809267961912248_" gradientUnits="userSpaceOnUse" x1="41.6083" y1="80.0358" x2="6.8759" y2="87.4184">
					<stop offset="0" style="stop-color:#FFFFFF"/>
					<stop offset="0.6214" style="stop-color:#FDFDFE"/>
					<stop offset="0.845" style="stop-color:#F6F8FC"/>
					<stop offset="1" style="stop-color:#EBEFF8"/>
				</linearGradient>
				<path style="fill:url(#SVGID_00000088094589775476262430000004803809267961912248_);" d="M7.1,84.7c0.2,0.5,0.2,0.5,0.4,0.9      c2.1,5.3,7.7,12.9,14.4,21c2.2,2.6,4.4,5.2,6.8,7.8c9.2,10.3,19.3,20.4,25.9,26.9c-3.4-5.1-19.9-30.5-29.6-54.9      c-8.9-22.3-1-55.9,2.2-67.5C11.7,28.4,4.9,41.7,4.9,41.7l-0.2,0.6C0,58.2,3.4,74.9,7.1,84.7C7.1,84.7,7.1,84.7,7.1,84.7z"/>
			</g>
			<g>
				<path class="st5" d="M63,2.6c-1.4,0-8.8-0.1-13.1,3.6c0,0-12-2-21.6,7.2c-2.3,0-11.5,5.3-18.9,17.8c-2,3.5-3.6,7.1-4.6,10.7      c1.4-1.9,7-9.5,18.7-8.4c0.8-0.6,8.1-8.6,23.3-5.8C49,25.4,56.6,23.1,63,23c6.4,0.1,14,2.4,16.1,4.6c15.2-2.8,22.5,5.2,23.3,5.8      c11.7-1.1,17.3,6.5,18.8,8.4c-1-3.7-2.6-7.2-4.6-10.7c-7.3-12.6-16.6-17.8-18.9-17.8c-9.5-9.2-21.6-7.2-21.6-7.2      C71.8,2.5,64.4,2.5,63,2.6"/>
				<path class="st6" d="M49.9,6.1c0,0-12-2-21.6,7.2c-2.3,0-11.5,5.3-18.9,17.8c-2,3.5-3.6,7.1-4.6,10.7c1.4-1.9,7-9.5,18.7-8.4      c0.8-0.6,8.1-8.6,23.3-5.9C48.3,15.4,49.9,6.1,49.9,6.1z"/>
				<path class="st7" d="M23.6,33.5C23.6,33.4,23.6,33.4,23.6,33.5c2.2-11.4,4.7-20.1,4.7-20.1c-2.3,0-11.5,5.3-18.9,17.8      c-2,3.5-3.6,7.1-4.6,10.7C6.3,40,11.8,32.4,23.6,33.5z"/>
				<path class="st6" d="M76.1,6.1c0,0,12-2,21.6,7.2c2.3,0,11.5,5.3,18.9,17.8c2,3.5,3.6,7.1,4.6,10.7c-1.4-1.9-7-9.5-18.8-8.4      c-0.8-0.6-8.1-8.6-23.3-5.9C77.7,15.4,76.1,6.1,76.1,6.1z"/>
				<path class="st7" d="M102.4,33.5C102.4,33.4,102.4,33.4,102.4,33.5c-2.2-11.4-4.7-20.1-4.7-20.1c2.3,0,11.5,5.3,18.9,17.8      c2,3.5,3.6,7.1,4.6,10.7C119.7,40,114.2,32.4,102.4,33.5z"/>
			</g>
			<g>
				<polygon class="st8" points="63.2,149.4 63,149.4 56.5,149.4 56.6,149.6 59,158.1 63.2,158.1     "/>
				<polygon class="st9" points="63.1,149.4 63.2,149.4 69.8,149.4 69.7,149.6 67.3,158.1 63.1,158.1     "/>
				<path class="st9" d="M70.4,149.7H55.8c0,0,0,0,0,0v-0.9c0,0,0,0,0,0h14.6c0,0,0,0,0,0L70.4,149.7      C70.5,149.7,70.5,149.7,70.4,149.7z"/>
				<polygon class="st8" points="69.6,149.9 69.6,149.7 56.6,149.7 56.7,149.9     "/>
			</g>
			<g>
				<path class="st10" d="M103.3,78.4c-0.2,0-7.6-7.8-22.4-6.4c-0.8-0.5-6.3-3.4-17.9-4c-10.7,0.2-17.1,3.5-17.9,4      c-14.8-1.4-22.2,6.4-22.4,6.4c-8.9-0.2-14.9,6-15.4,6.7c0.2,0.5,0.2,0.5,0.4,0.9c5.6,13.8,34.9,43.7,48,56.3H63h7.3      c13.1-12.7,42.5-42.5,48-56.3c0.2-0.5,0.2-0.4,0.4-0.9C118.2,84.3,112.2,78.1,103.3,78.4z"/>
				<path class="st11" d="M80.9,71.9c14.8-1.4,22.2,6.4,22.4,6.4c8.9-0.2,14.9,6,15.4,6.7c-0.2,0.5-0.2,0.5-0.4,0.9      c-5.6,13.8-34.9,43.7-48,56.3h-4C76.5,120.4,80.2,94.9,80.9,71.9L80.9,71.9z"/>
				<path class="st12" d="M103.3,78.3L103.3,78.3c8.9-0.2,14.9,6,15.4,6.7c-0.2,0.5-0.2,0.5-0.4,0.9c-5.6,13.8-34.9,43.7-48,56.3      c0,0,19.4-28.4,30.5-55.7C101.9,84,102.7,81.2,103.3,78.3z"/>
				<path class="st11" d="M45.1,71.9c-14.8-1.4-22.2,6.4-22.4,6.4c-8.9-0.2-14.9,6-15.4,6.7c0.2,0.5,0.2,0.5,0.4,0.9      c5.6,13.8,34.9,43.7,48,56.3h4C49.5,120.4,45.8,94.9,45.1,71.9L45.1,71.9z"/>
				<path class="st12" d="M22.7,78.3L22.7,78.3c-8.9-0.2-14.9,6-15.4,6.7c0.2,0.5,0.2,0.5,0.4,0.9c5.6,13.8,34.9,43.7,48,56.3      c0,0-19.4-28.4-30.5-55.7C24.1,84,23.3,81.2,22.7,78.3z"/>
			</g>
			<g>
				<g>
					<path class="st10" d="M30.5,49.6C30.5,49.5,30.5,49.5,30.5,49.6c-0.1-1.7-0.6-2.9-1.6-3.5c-1.1-0.7-2.8-0.8-4.7-0.1       c-2.2,0.7-4.3,1.5-6.4,2.3c0.3,5.5,0.6,11,0.9,16.5c1.4-0.6,2.1-0.8,3.5-1.3c-0.1-2.2-0.2-3.2-0.3-5.4c0.8-0.3,1.2-0.4,2.1-0.7       c1.3,1.7,2,2.6,3.3,4.4c1.6-0.5,2.5-0.8,4.1-1.2c-1.3-1.7-2.6-3.4-3.9-5.1C29.5,54,30.6,51.9,30.5,49.6z M26.9,50.7       C26.9,50.7,26.9,50.7,26.9,50.7c0.1,1.5-0.9,2.7-2.6,3.3c-1,0.3-1.5,0.5-2.5,0.9c-0.1-1.9-0.1-2.9-0.2-4.8       c1-0.3,1.5-0.5,2.4-0.8C25.8,48.6,26.8,49.2,26.9,50.7z"/>
					<path class="st10" d="M83.7,40.9c-2.2,5.3-4.4,10.6-6.6,15.9c1.5,0.2,2.2,0.3,3.7,0.5c0.5-1.4,0.8-2,1.3-3.4       c2.3,0.4,3.5,0.6,5.8,1c0.5,1.5,0.7,2.3,1.2,3.8c1.5,0.3,2.3,0.5,3.8,0.9c-1.8-6-3.7-12.1-5.7-18.1       C85.8,41.3,85.1,41.2,83.7,40.9z M87,51.6c-1.4-0.3-2.1-0.4-3.6-0.6c0.8-1.9,1.2-2.9,1.9-4.8C86,48.3,86.3,49.4,87,51.6z"/>
					<path class="st10" d="M104.5,54.5c1.7-2.1,3.5-4.2,5.2-6.3c-1.6-0.6-2.4-0.9-4-1.5c-1.3,1.7-1.9,2.5-3.1,4.3       c-0.9-2.1-1.7-4.1-2.6-6.1c-1.7-0.5-2.5-0.7-4.2-1.2c1.5,3.2,3.1,6.3,4.5,9.5c-1.8,2.3-3.6,4.6-5.4,7c1.6,0.4,2.4,0.6,4,1.1       c1.3-1.9,2-2.8,3.3-4.6c0.9,2.2,1.8,4.4,2.7,6.6c1.6,0.6,2.4,0.9,4,1.5C107.5,61.3,106,57.9,104.5,54.5z"/>
					<path class="st10" d="M39,55.4c0-1.4-0.1-2.1-0.1-3.5c2.2-0.5,4.4-0.9,6.7-1.2c0-1.3,0-1.9-0.1-3.2c-2.2,0.3-4.5,0.7-6.7,1.2       c0-1.4-0.1-2.1-0.1-3.4c2.5-0.5,5.1-0.9,7.6-1.3c0-1.3,0-1.9-0.1-3.2c-3.8,0.6-7.6,1.3-11.4,2.2c0.2,5.5,0.4,11.1,0.6,16.6       c2.3-0.5,4.6-1,6.9-1.4c0.6-1.4,1-2.1,1.6-3.5C42,54.8,41,55,39,55.4z"/>
					<path class="st10" d="M70.4,39.6c-1.3,1.7-2.6,3.5-3.9,5.3c-1.3-1.8-2.6-3.6-3.9-5.4c0,0,0,0,0,0c-1.3,2.4-2.6,4.9-3.9,7.4       c0,3.1,0,6.3,0.1,9.4c1.5-0.1,2.2-0.1,3.6-0.1c0-3.4,0-6.9,0-10.3c1.3,1.7,2.7,3.4,4,5.1c0,0,0,0,0,0c0.1,0,0.1,0,0.2,0       c1.3-1.7,2.7-3.4,4-5c0,3.5-0.1,6.9-0.1,10.4c1.5,0.1,2.2,0.1,3.6,0.3c0.1-5.6,0.1-11.1,0.2-16.7C72.8,39.8,72,39.7,70.4,39.6z       "/>
					<path class="st5" d="M50.3,56.9C53.1,51,56,45.2,59,39.4c-1.8,0.1-2.8,0.1-4.6,0.3c-3,5.9-5.8,11.8-8.6,17.8       C47.6,57.2,48.5,57.1,50.3,56.9z"/>
				</g>
			</g>
		</g>
		<g>
			<path class="st9" d="M78.8,148.7c2.5,0,4.6,2,4.6,4.5c0,2.6-2,4.6-4.6,4.6c-2.5,0-4.6-2-4.6-4.6     C74.2,150.8,76.2,148.7,78.8,148.7L78.8,148.7z M78.8,149.4c-2,0-3.7,1.7-3.7,3.8c0,2.2,1.7,3.9,3.7,3.9c2.1,0,3.7-1.7,3.7-3.8     C82.5,151.2,80.9,149.4,78.8,149.4L78.8,149.4z M77.9,155.9h-0.8v-5.1c0.4-0.1,0.8-0.1,1.5-0.1c0.8,0,1.3,0.2,1.6,0.4     c0.3,0.2,0.5,0.6,0.5,1c0,0.7-0.5,1.1-1,1.2v0c0.5,0.1,0.8,0.5,0.9,1.2c0.1,0.8,0.2,1.1,0.3,1.3H80c-0.1-0.2-0.2-0.6-0.4-1.3     c-0.1-0.6-0.5-0.9-1.1-0.9h-0.6V155.9z M77.9,153.1h0.6c0.7,0,1.3-0.2,1.3-0.9c0-0.4-0.3-0.9-1.3-0.9c-0.3,0-0.5,0-0.6,0V153.1z"/>
		</g>
	</g>
</g>
</svg>